<mxfile host="app.diagrams.net" modified="2022-03-09T03:35:32.818Z" agent="5.0 (Macintosh; Intel Mac OS X 10_15_7) AppleWebKit/537.36 (KHTML, like Gecko) Chrome/99.0.4844.51 Safari/537.36" etag="WADdgj180RDLNYsk7LDu" version="16.6.4" type="github">
  <diagram id="ppO3Atb4Y6vpZimPy_8v" name="第 1 页">
    <mxGraphModel dx="1298" dy="834" grid="1" gridSize="10" guides="1" tooltips="1" connect="1" arrows="1" fold="1" page="0" pageScale="1" pageWidth="827" pageHeight="1169" math="0" shadow="0">
      <root>
        <mxCell id="0" />
        <mxCell id="1" parent="0" />
        <mxCell id="Ht-4bamNHmTEr4UHNeEY-8" style="edgeStyle=orthogonalEdgeStyle;rounded=0;orthogonalLoop=1;jettySize=auto;html=1;exitX=1;exitY=0.5;exitDx=0;exitDy=0;entryX=0;entryY=0.5;entryDx=0;entryDy=0;" edge="1" parent="1" source="Ht-4bamNHmTEr4UHNeEY-1" target="Ht-4bamNHmTEr4UHNeEY-2">
          <mxGeometry relative="1" as="geometry" />
        </mxCell>
        <mxCell id="Ht-4bamNHmTEr4UHNeEY-1" value="点击筛选条件" style="rounded=0;whiteSpace=wrap;html=1;fillColor=#dae8fc;strokeColor=#6c8ebf;" vertex="1" parent="1">
          <mxGeometry x="180" y="180" width="120" height="60" as="geometry" />
        </mxCell>
        <mxCell id="Ht-4bamNHmTEr4UHNeEY-10" style="edgeStyle=orthogonalEdgeStyle;rounded=0;orthogonalLoop=1;jettySize=auto;html=1;exitX=1;exitY=0.5;exitDx=0;exitDy=0;entryX=0;entryY=0.5;entryDx=0;entryDy=0;" edge="1" parent="1" source="Ht-4bamNHmTEr4UHNeEY-2" target="Ht-4bamNHmTEr4UHNeEY-9">
          <mxGeometry relative="1" as="geometry" />
        </mxCell>
        <mxCell id="Ht-4bamNHmTEr4UHNeEY-2" value="获取对应数据" style="rounded=0;whiteSpace=wrap;html=1;fillColor=#dae8fc;strokeColor=#6c8ebf;" vertex="1" parent="1">
          <mxGeometry x="350" y="180" width="120" height="60" as="geometry" />
        </mxCell>
        <mxCell id="Ht-4bamNHmTEr4UHNeEY-4" style="edgeStyle=orthogonalEdgeStyle;rounded=0;orthogonalLoop=1;jettySize=auto;html=1;exitX=0.5;exitY=1;exitDx=0;exitDy=0;entryX=0.5;entryY=0;entryDx=0;entryDy=0;" edge="1" parent="1" source="Ht-4bamNHmTEr4UHNeEY-3" target="Ht-4bamNHmTEr4UHNeEY-2">
          <mxGeometry relative="1" as="geometry" />
        </mxCell>
        <mxCell id="Ht-4bamNHmTEr4UHNeEY-3" value="Redis" style="shape=partialRectangle;whiteSpace=wrap;html=1;left=0;right=0;fillColor=#fff2cc;strokeColor=#d6b656;" vertex="1" parent="1">
          <mxGeometry x="350" y="70" width="120" height="60" as="geometry" />
        </mxCell>
        <mxCell id="Ht-4bamNHmTEr4UHNeEY-7" style="edgeStyle=orthogonalEdgeStyle;rounded=0;orthogonalLoop=1;jettySize=auto;html=1;exitX=0.5;exitY=0.5;exitDx=0;exitDy=0;exitPerimeter=0;entryX=0;entryY=0.5;entryDx=0;entryDy=0;" edge="1" parent="1" source="Ht-4bamNHmTEr4UHNeEY-5" target="Ht-4bamNHmTEr4UHNeEY-1">
          <mxGeometry relative="1" as="geometry" />
        </mxCell>
        <mxCell id="Ht-4bamNHmTEr4UHNeEY-5" value="主播" style="shape=umlActor;verticalLabelPosition=bottom;verticalAlign=top;html=1;outlineConnect=0;" vertex="1" parent="1">
          <mxGeometry x="60" y="180" width="30" height="60" as="geometry" />
        </mxCell>
        <mxCell id="Ht-4bamNHmTEr4UHNeEY-12" style="edgeStyle=orthogonalEdgeStyle;rounded=0;orthogonalLoop=1;jettySize=auto;html=1;exitX=1;exitY=0.5;exitDx=0;exitDy=0;entryX=0;entryY=0.5;entryDx=0;entryDy=0;" edge="1" parent="1" source="Ht-4bamNHmTEr4UHNeEY-9" target="Ht-4bamNHmTEr4UHNeEY-11">
          <mxGeometry relative="1" as="geometry" />
        </mxCell>
        <mxCell id="Ht-4bamNHmTEr4UHNeEY-9" value="按条件过滤排序" style="rhombus;whiteSpace=wrap;html=1;fillColor=#d5e8d4;strokeColor=#82b366;" vertex="1" parent="1">
          <mxGeometry x="540" y="170" width="140" height="80" as="geometry" />
        </mxCell>
        <mxCell id="Ht-4bamNHmTEr4UHNeEY-11" value="展示榜单" style="rounded=0;whiteSpace=wrap;html=1;fillColor=#dae8fc;strokeColor=#6c8ebf;" vertex="1" parent="1">
          <mxGeometry x="760" y="180" width="120" height="60" as="geometry" />
        </mxCell>
      </root>
    </mxGraphModel>
  </diagram>
</mxfile>
